<svg width="360" height="210" viewBox="0 0 360 210" fill="none" xmlns="http://www.w3.org/2000/svg">
  <defs>
    <linearGradient id="lionMane" x1="58" y1="28" x2="180" y2="150" gradientUnits="userSpaceOnUse">
      <stop offset="0" stop-color="#ffb347" />
      <stop offset="0.45" stop-color="#fa9100" />
      <stop offset="1" stop-color="#004aad" />
    </linearGradient>
    <linearGradient id="wordmark" x1="70" y1="155" x2="290" y2="155" gradientUnits="userSpaceOnUse">
      <stop offset="0" stop-color="#004aad" />
      <stop offset="1" stop-color="#002b6f" />
    </linearGradient>
  </defs>
  <rect x="20" y="18" width="320" height="174" rx="36" fill="#ffffff" fill-opacity="0" />
  <g filter="url(#shadow)">
    <path
      d="M142.5 47.2c-11.8 0-23.6 4.4-32.3 12-5.9 5.2-10.2 11.7-12.6 18.7 3.8-3.6 8.7-5.9 14-6.2 0 0-9.2 12.9-4.4 28.4 4.8 15.5 20.3 24 32.9 27.2-2.9-4.1-4.5-9-4.4-14 6.7 5.4 15.3 8.6 24.3 8.6 18.4 0 33.8-12.7 36.8-29.1-4.8 5.1-11.8 8.4-19.6 8.4 14.4-11.4 20.5-30.6 15.1-48.1-6.3 10-17.6 16.7-30.4 16.7-3.2 0-6.2-0.4-9.1-1.2 7.6-4.7 12.4-13 12.4-22.1 0-1.4-0.1-2.8-0.3-4.1-6.6 7.8-16.5 12.7-27.4 12.7z"
      fill="url(#lionMane)"
    />
    <path
      d="M182.7 75.8c4.3-0.2 8.2-1.5 11.6-3.7-1.2 7.7-6.1 14.2-13 17.8-3.5 1.8-7.3 2.8-11.2 2.8-6.4 0-12.5-2.5-16.9-7 2.5-0.3 5-1.1 7.3-2.3 6.2-3.1 10.8-8.8 12.5-15.5 1.5 3.4 4.7 6.7 9.7 7.9z"
      fill="#fcd07a"
    />
    <path
      d="M135.6 66.5c4 1.4 7.4 4 9.7 7.4 2.1 3.1 3.3 6.7 3.5 10.3-2.9-2.9-6.4-5.1-10.4-6.3-3.9-1.2-8-1.3-11.9-0.6 2.3-5 5.5-8.9 9.1-10.8z"
      fill="#003b8d"
      opacity="0.65"
    />
  </g>
  <g>
    <rect x="70" y="142" width="220" height="6" fill="#fa9100" rx="3" />
    <text x="180" y="140" text-anchor="middle" font-family="'Montserrat', 'Segoe UI', sans-serif" font-size="44" font-weight="700" letter-spacing="4" fill="url(#wordmark)">
      TRIUMPH
    </text>
    <text x="180" y="176" text-anchor="middle" font-family="'Montserrat', 'Segoe UI', sans-serif" font-size="18" font-weight="600" letter-spacing="6" fill="#004aad">
      BUSINESS SOLUTIONS
    </text>
  </g>
  <defs>
    <filter id="shadow" x="82" y="37" width="172" height="119" filterUnits="userSpaceOnUse" color-interpolation-filters="sRGB">
      <feOffset dy="4" />
      <feGaussianBlur stdDeviation="8" result="blur" />
      <feComposite in="blur" in2="SourceAlpha" operator="out" />
      <feColorMatrix type="matrix" values="0 0 0 0 0 0 0 0 0 0 0 0 0 0 0 0 0 0 0.25 0" />
      <feBlend in2="SourceGraphic" result="shape" />
    </filter>
  </defs>
</svg>
